<svg width="16" height="16" viewBox="0 0 16 16" fill="none" xmlns="http://www.w3.org/2000/svg">
<path fill-rule="evenodd" clip-rule="evenodd" d="M11.7204 11.2773L14.9889 15.1128L14.422 15.6L11.1446 11.7645C10.0167 12.6208 8.74705 13.0489 7.33569 13.0489C6.47942 13.0489 5.66008 12.8821 4.87766 12.5484C4.09524 12.2148 3.42204 11.766 2.85807 11.2021C2.2941 10.6381 1.8453 9.96493 1.51169 9.18248C1.17807 8.40004 1.01125 7.5807 1.01123 6.72445C1.01121 5.86821 1.17803 5.04886 1.51169 4.26642C1.84535 3.48397 2.29414 2.81078 2.85807 2.24683C3.42199 1.68288 4.09519 1.23409 4.87766 0.900452C5.66012 0.566813 6.47947 0.399994 7.33569 0.399994C8.19191 0.399994 9.01125 0.566813 9.79372 0.900452C10.5762 1.23409 11.2494 1.68288 11.8133 2.24683C12.3772 2.81078 12.826 3.48397 13.1597 4.26642C13.4934 5.04886 13.6602 5.86821 13.6601 6.72445C13.6601 7.60432 13.4889 8.43695 13.1464 9.22235C12.8039 10.0077 12.3285 10.6928 11.7203 11.2774L11.7204 11.2773ZM7.33576 12.3048C8.34553 12.3048 9.27856 12.0553 10.1348 11.5563C10.9911 11.0573 11.6687 10.3797 12.1677 9.52345C12.6667 8.6672 12.9162 7.73418 12.9162 6.72438C12.9162 5.71458 12.6667 4.78156 12.1677 3.92532C11.6687 3.06907 10.991 2.39146 10.1348 1.89248C9.2786 1.39349 8.34558 1.144 7.33576 1.144C6.32594 1.144 5.39291 1.39349 4.53669 1.89248C3.68047 2.39146 3.00286 3.06907 2.50385 3.92532C2.00485 4.78156 1.75536 5.71458 1.75538 6.72438C1.7554 7.73418 2.00489 8.6672 2.50385 9.52345C3.00281 10.3797 3.68042 11.0573 4.53669 11.5563C5.39296 12.0553 6.32598 12.3048 7.33576 12.3048Z" fill="black"/>
</svg>
